PathFileType	3	(X/Y/Z)	D:\Vicon Database\Healthy Subjects\S0040\Jan. 30, 2020\Force Plate Walk 6.trc
DataRate	CameraRate	NumFrames	NumMarkers	Units	OrigDataRate	OrigDataStartFrame	OrigNumFrames
100.0	100.0	5	53	mm	100.0	484	350	
Frame#	Time	sternum_cluster1			sternum_cluster2			sternum_cluster3			left_asis			right_asis			left_psis			right_psis			sacrum_cluster1			sacrum_cluster2			sacrum_cluster3			left_lat_femoral_epicondyle			left_anterior_thigh15			left_anterior_thigh25			left_anterior_thigh50			left_lateral_thigh25			left_lateral_thigh50			left_thigh_cluster1			left_thigh_cluster2			left_thigh_cluster3			left_fibular_head			left_tibial_tuberosity			left_anterior_shank30			left_lateral_malleolus			left_shank_cluster1			left_shank_cluster2			left_shank_cluster3			left_heel			left_metatarsal2			left_foot_cluster1			left_foot_cluster2			left_foot_cluster3			right_lat_femoral_epicondyle			right_anterior_thigh15			right_anterior_thigh25			right_anterior_thigh50			right_lateral_thigh25			right_lateral_thigh50			right_thigh_cluster1			right_thigh_cluster2			right_thigh_cluster3			right_fibular_head			right_tibial_tuberosity			right_lateral_distal_shank			right_anterior_shank30			right_lateral_malleolus			right_shank_cluster1			right_shank_cluster2			right_shank_cluster3			right_heel			right_metatarsal2			right_foot_cluster1			right_foot_cluster2			right_foot_cluster3			
		X1	Y1	Z1	X2	Y2	Z2	X3	Y3	Z3	X4	Y4	Z4	X5	Y5	Z5	X6	Y6	Z6	X7	Y7	Z7	X8	Y8	Z8	X9	Y9	Z9	X10	Y10	Z10	X11	Y11	Z11	X12	Y12	Z12	X13	Y13	Z13	X14	Y14	Z14	X15	Y15	Z15	X16	Y16	Z16	X17	Y17	Z17	X18	Y18	Z18	X19	Y19	Z19	X20	Y20	Z20	X21	Y21	Z21	X22	Y22	Z22	X23	Y23	Z23	X24	Y24	Z24	X25	Y25	Z25	X26	Y26	Z26	X27	Y27	Z27	X28	Y28	Z28	X29	Y29	Z29	X30	Y30	Z30	X31	Y31	Z31	X32	Y32	Z32	X33	Y33	Z33	X34	Y34	Z34	X35	Y35	Z35	X36	Y36	Z36	X37	Y37	Z37	X38	Y38	Z38	X39	Y39	Z39	X40	Y40	Z40	X41	Y41	Z41	X42	Y42	Z42	X43	Y43	Z43	X44	Y44	Z44	X45	Y45	Z45	X46	Y46	Z46	X47	Y47	Z47	X48	Y48	Z48	X49	Y49	Z49	X50	Y50	Z50	X51	Y51	Z51	X52	Y52	Z52	X53	Y53	Z53	
484	4.83	702.12457	1457.291	-176.94655	690.07166	1429.9407	-167.84265	687.95544	1433.2269	-205.58647	715.22522	1075.447	-64.209564	694.27075	1085.8757	-310.63348	875.69598	1087.0154	-121.50146	868.65381	1094.5718	-239.25255	882.20642	1147.9507	-185.67737	887.2063	1123.2178	-198.73723	892.25592	1116.0902	-160.14447	638.79584	561.44763	-43.614258	555.74457	657.24231	-79.905945	573.57813	746.61005	-67.200111	629.82526	875.37878	-58.163002	683.81482	701.78186	-25.441513	729.09595	843.1026	-0.26763523	717.53772	797.60376	4.6610794	710.88	768.42975	1.1348392	679.56036	787.59882	9.1714563	647.76471	490.58264	-35.360928	594.00562	461.7988	-86.078331	744.41064	254.61481	-105.65871	848.59021	179.57947	-81.833092	621.07129	409.918	-115.53717	633.00757	384.51791	-107.28368	641.55737	391.27667	-144.16858	925.34534	184.44757	-130.07758	735.21161	80.893585	-104.03713	762.98102	151.66556	-99.863655	752.18097	124.98319	-88.814316	741.00513	128.64911	-125.30671	749.46069	534.24158	-316.02002	667.27942	623.01605	-257.41037	649.86176	703.17267	-258.798	645.32239	833.61078	-273.67212	743.30658	694.05371	-344.09341	739.50195	840.24683	-375.30273	748.96417	787.53638	-380.54922	737.90656	761.64661	-374.81259	775.8064	759.32269	-373.18658	765.3299	466.29535	-317.21185	712.59888	455.44357	-269.94046	802.26392	198.8354	-296.53439	757.94513	210.31952	-248.43541	816.9046	96.823509	-277.78333	732.25342	392.27759	-213.7632	740.51892	365.61304	-206.27032	717.82544	359.69165	-234.39636	893.90118	64.312401	-244.40059	674.5755	66.708199	-233.43295	730.59332	114.25478	-233.44864	707.3916	100.25018	-224.01836	705.65497	103.57349	-261.18301
485	4.84	688.41101	1457.9131	-176.63731	676.33008	1430.5787	-167.51025	674.09009	1433.9006	-205.26665	702.09204	1076.3765	-64.792358	681.74084	1085.5524	-311.07043	862.50598	1088.0967	-121.35283	855.68329	1095.5638	-239.11607	869.08661	1149.2791	-185.62712	874.14569	1124.2792	-198.93095	879.1037	1117.4397	-160.28407	619.52246	564.42084	-44.165051	537.83368	662.12872	-80.625641	557.09662	751.2735	-67.665649	615.39075	878.7829	-58.61758	666.89093	704.51593	-24.933664	713.71564	845.48419	0.65731943	701.22266	799.96228	5.6755538	694.31128	770.91943	2.1271999	663.08893	790.51147	9.4660797	626.54993	493.0014	-36.038574	570.91785	466.22604	-86.108727	710.09692	251.19853	-105.25163	810.27197	170.7412	-81.870308	595.07953	412.67847	-115.03397	605.45929	386.8992	-106.79476	614.29584	392.74231	-143.81767	886.9071	170.12253	-130.69029	690.58771	79.499748	-102.6491	722.85315	148.31999	-99.273422	710.80963	122.2411	-87.934654	699.36536	126.43266	-124.4174	747.31641	534.52045	-315.40121	662.67792	621.51031	-257.42459	643.14624	701.44672	-258.92966	636.0744	831.87	-274.14758	737.47937	694.17572	-343.7977	730.74274	840.17249	-375.06961	741.26489	787.77057	-380.26074	730.22076	761.77985	-374.48523	768.47626	760.12524	-372.71249	762.82922	466.83939	-317.46393	710.55566	455.34024	-269.7485	801.63159	199.3891	-296.33536	756.53998	210.55081	-248.41093	816.91992	97.092773	-277.60968	728.53522	392.44659	-214.24376	738.84729	365.34079	-206.17326	714.88153	360.35898	-234.21246	893.83185	64.640778	-244.299	674.28528	66.515556	-233.34276	730.29584	114.2025	-233.29721	706.99158	100.16145	-223.74989	705.51599	103.38158	-261.15594
486	4.85	674.64404	1458.1884	-176.3325	662.69257	1430.775	-167.26749	660.1792	1434.2434	-204.985	688.85846	1076.9952	-65.276772	669.12634	1084.9855	-311.63727	849.6756	1089.3979	-120.97737	842.55884	1096.193	-238.89346	855.84027	1150.0981	-185.63509	861.10913	1125.3993	-199.01476	865.92682	1118.2804	-160.19946	600.75012	567.27222	-44.868637	520.35522	666.6131	-81.28421	540.99078	755.3028	-68.284256	600.9411	881.78705	-59.150925	649.74377	707.03473	-24.177874	698.58679	847.47913	1.410522	684.84033	802.07245	6.8556266	677.69159	773.07135	3.3871627	646.71661	793.2002	10.040291	605.98846	494.89581	-36.654587	548.62537	470.38538	-86.015022	675.48639	247.89626	-104.6226	771.11499	161.79822	-81.511238	569.34723	415.37781	-114.49761	578.49628	389.05991	-106.0905	587.15936	394.09708	-143.28493	847.3783	156.01788	-130.65944	646.15491	78.081558	-101.34076	682.52948	144.76273	-98.588219	668.79767	119.76146	-86.992226	657.59656	124.30536	-123.47133	744.58795	534.5351	-315.20425	658.19867	619.97156	-257.42358	636.45227	699.6261	-259.02036	626.57556	830.06927	-274.45847	731.45172	694.12811	-343.58582	720.92438	839.66895	-373.94843	733.24561	787.72144	-379.92227	722.56567	761.68286	-374.12848	761.89545	761.42322	-372.67484	761.16028	467.24634	-316.61194	708.47266	455.22754	-269.59406	800.73822	199.66835	-295.73141	756.11823	210.91162	-248.3004	816.47156	97.491379	-277.22964	728.47394	392.24341	-213.39665	736.81738	365.44424	-206.15237	714.05811	360.16248	-234.23906	893.63733	64.986885	-244.15585	674.05225	66.230339	-233.2491	729.96851	114.14838	-233.04707	706.68768	100.02511	-223.58537	705.28796	103.23801	-260.93173
487	4.86	660.70898	1458.1375	-176.09119	648.69446	1430.7122	-167.01688	646.22644	1434.2311	-204.74191	675.57318	1077.313	-65.730286	656.37946	1084.2185	-312.1347	836.32416	1089.8988	-120.90665	829.52039	1096.533	-238.61255	842.59363	1150.5305	-185.5218	848.0097	1125.9178	-198.62221	852.77716	1118.9034	-159.84991	582.8385	569.1665	-45.382248	503.86911	670.20032	-82.019188	525.26349	758.69958	-68.972618	586.68201	884.15625	-59.802155	632.75391	709.19678	-23.279875	683.04401	849.41486	2.4502025	668.52917	804.02509	8.0722313	661.27203	775.05377	4.4735379	630.50421	795.43384	10.468717	585.97168	496.32288	-37.202057	526.98486	474.2811	-85.979721	640.38055	244.9342	-103.7523	731.09235	153.09773	-80.72187	544.25342	418.00369	-113.99129	552.18256	391.23126	-105.41391	560.44318	395.46716	-142.74162	807.07489	142.15475	-129.94695	601.43097	77.036308	-100.03646	641.8194	141.45119	-97.840683	626.56293	117.48298	-86.082375	615.47882	122.58589	-122.54982	741.49963	534.67706	-315.03214	653.74139	618.42285	-257.3454	629.74023	697.68585	-259.05679	617.00311	828.2066	-274.63788	725.23724	693.92365	-343.40646	712.30188	839.38336	-374.25174	725.27332	787.78857	-379.90884	714.98419	761.19031	-373.95422	754.41278	761.83093	-372.38861	758.31805	467.56442	-316.73102	706.00305	455.14728	-269.72772	799.68011	200.40585	-295.80698	755.04938	211.1474	-248.24692	816.19916	97.974617	-277.04825	724.65375	392.33932	-214.28618	734.8045	365.48315	-205.79907	712.04462	360.06619	-233.87914	893.39764	65.247078	-244.06657	673.78912	66.028091	-233.19669	729.24634	114.10915	-232.99759	706.25824	99.970749	-223.39304	704.95251	103.17182	-260.84033
488	4.87	646.75049	1457.7029	-175.87579	634.80151	1430.2526	-166.75595	632.14398	1433.87	-204.4662	662.32819	1077.2102	-66.028175	643.78772	1083.1449	-312.53296	823.21844	1089.9838	-120.66688	816.68231	1096.5198	-238.24355	829.33173	1150.6915	-185.24606	834.75928	1125.9581	-198.26836	839.62201	1119.0082	-159.54625	565.43109	570.75012	-45.712444	487.85648	673.11987	-82.627159	509.97729	761.31732	-69.722603	572.49225	885.92792	-60.509933	615.99359	710.91687	-22.444977	667.83966	850.75677	3.4120176	652.52966	805.599	9.1891003	645.08905	776.72491	5.5080867	614.49963	797.41412	11.103719	566.49597	497.03705	-37.520744	506.14935	477.72305	-86.005142	605.82947	241.79376	-102.82872	690.35883	144.81981	-79.707535	519.82629	420.52579	-113.60868	525.98511	393.42926	-104.92088	534.48553	396.84464	-142.32983	766.09515	129.29378	-128.69966	556.36993	76.906166	-98.957237	600.67078	138.60439	-97.010315	583.8894	115.86942	-85.189674	573.15063	121.37809	-121.6363	738.27142	534.86987	-314.68906	649.24469	616.84088	-257.17929	623.06653	695.65308	-258.88968	607.43988	826.15265	-274.74332	718.77533	693.78137	-343.23267	704.1723	839.91248	-376.36865	717.01331	787.64563	-379.79404	706.9278	760.71326	-373.99374	745.651	761.13788	-371.99463	756.901	467.88052	-315.98492	703.29602	455.26346	-269.86087	800.09082	201.05717	-294.90649	754.00366	211.41356	-248.05052	815.81781	98.400764	-276.71918	722.54913	392.37277	-213.75436	732.82465	365.66132	-205.71429	710.1579	360.1442	-233.83426	893.22003	65.592331	-243.91347	673.4693	65.844406	-233.06271	729.19891	114.10332	-232.74161	705.93304	99.899719	-223.26079	704.63055	103.12244	-260.6861
